<svg viewBox="0 0 700 600" class="diagram-root" style="background: #f5f6f6" xmlns="http://www.w3.org/2000/svg" xmlns:xlink="http://www.w3.org/1999/xlink"><style>.diagram-root { font-family: "Helvetica Neue", sans-serif; font-size: 13px; } .t { overflow: visible; } .t-bg { y: 40; fill: #fff;   } .th { fill: #005aa0;   } .tht { fill: #fff; font-size: 14px;  } .tf { fill: #323c46; overflow: visible; } .tf.pk { fill: #005aa0; font-weight: bold; } .tf.fk { font-weight: bold; } .ty { fill: #adb1b5; font-weight: normal; text-anchor: end; } .r { fill: transparent; stroke: #c3c3c3; stroke-width: 1; } .l { stroke: 1; } .i { fill: #c2c7ce; stroke: #c2c7ce; } .i.ix { fill: #afb3b6; stroke: #000; } .fa { fill: transparent; overflow: visible; } .fa .bg.hover { fill: #f7f7f7; } .c { cy: 12; r: 4; stroke: #d2d2dc; fill: #d2d2dc; } .hr { fill: transparent; stroke: #323c46; stroke-opacity: 0.035; stroke-width: 13; } .dc { stroke: #fa5a3c; fill: #fa5a3c; } .x { stroke: white; stroke-width: 1; } .hl .th { fill: #1b9bff; } .hl .tht {  } .fhl .bg { fill: #e7f4ff; } .fhls .bg {  } .r.hl { stroke: #1b9bff; } .dim { opacity: 0.25; }</style><g class="drawing-wrapper" transform="translate(-27, 0) scale(1,1)"><g class="rs"><path d="M 221.06 212 m -1, 0 a 1,1 0 1,0 2,0 a 1,1 0 1,0 -2,0 M 221.06 212 m -0.5, 0 a 0.5,0.5 0 1,0 1,0 a 0.5,0.5 0 1,0 -1,0  M221.06 212 L221.06 212 233.06 212 M 221.06 218 m -1, 0 a 1,1 0 1,0 2,0 a 1,1 0 1,0 -2,0 M 221.06 218 m -0.5, 0 a 0.5,0.5 0 1,0 1,0 a 0.5,0.5 0 1,0 -1,0  M221.06 218 L221.06 218 228.06 212 221.06 206 M 221.06 206 m -1, 0 a 1,1 0 1,0 2,0 a 1,1 0 1,0 -2,0 M 221.06 206 m -0.5, 0 a 0.5,0.5 0 1,0 1,0 a 0.5,0.5 0 1,0 -1,0  M233.06 212 Q 252.05 212, 271.03 211.5 T 309 211 M 321 211 m -1, 0 a 1,1 0 1,0 2,0 a 1,1 0 1,0 -2,0 M 321 211 m -0.5, 0 a 0.5,0.5 0 1,0 1,0 a 0.5,0.5 0 1,0 -1,0  M321 211 L321 211 309 211 M315 217 L315 217 315 205" id="h1692899033" class="r"></path><path d="M 322 338 m -1, 0 a 1,1 0 1,0 2,0 a 1,1 0 1,0 -2,0 M 322 338 m -0.5, 0 a 0.5,0.5 0 1,0 1,0 a 0.5,0.5 0 1,0 -1,0  M322 338 L322 338 310 338 M 322 344 m -1, 0 a 1,1 0 1,0 2,0 a 1,1 0 1,0 -2,0 M 322 344 m -0.5, 0 a 0.5,0.5 0 1,0 1,0 a 0.5,0.5 0 1,0 -1,0  M322 344 L322 344 315 338 322 332 M 322 332 m -1, 0 a 1,1 0 1,0 2,0 a 1,1 0 1,0 -2,0 M 322 332 m -0.5, 0 a 0.5,0.5 0 1,0 1,0 a 0.5,0.5 0 1,0 -1,0  M310 338 Q 290.77 338, 271.53 212.5 T 233.06 87 M 221.06 87 m -1, 0 a 1,1 0 1,0 2,0 a 1,1 0 1,0 -2,0 M 221.06 87 m -0.5, 0 a 0.5,0.5 0 1,0 1,0 a 0.5,0.5 0 1,0 -1,0  M221.06 87 L221.06 87 233.06 87 M227.06 93 L227.06 93 227.06 81" id="h3448350358" class="r"></path><path d="M 322 363 m -1, 0 a 1,1 0 1,0 2,0 a 1,1 0 1,0 -2,0 M 322 363 m -0.5, 0 a 0.5,0.5 0 1,0 1,0 a 0.5,0.5 0 1,0 -1,0  M322 363 L322 363 310 363 M 322 369 m -1, 0 a 1,1 0 1,0 2,0 a 1,1 0 1,0 -2,0 M 322 369 m -0.5, 0 a 0.5,0.5 0 1,0 1,0 a 0.5,0.5 0 1,0 -1,0  M322 369 L322 369 315 363 322 357 M 322 357 m -1, 0 a 1,1 0 1,0 2,0 a 1,1 0 1,0 -2,0 M 322 357 m -0.5, 0 a 0.5,0.5 0 1,0 1,0 a 0.5,0.5 0 1,0 -1,0  M310 363 Q 284.26 363, 258.52 382.5 T 207.04 402 M 195.04 402 m -1, 0 a 1,1 0 1,0 2,0 a 1,1 0 1,0 -2,0 M 195.04 402 m -0.5, 0 a 0.5,0.5 0 1,0 1,0 a 0.5,0.5 0 1,0 -1,0  M195.04 402 L195.04 402 207.04 402 M201.04 408 L201.04 408 201.04 396" id="h1626969398" class="r"></path><path d="M 320 87 m -1, 0 a 1,1 0 1,0 2,0 a 1,1 0 1,0 -2,0 M 320 87 m -0.5, 0 a 0.5,0.5 0 1,0 1,0 a 0.5,0.5 0 1,0 -1,0  M320 87 L320 87 308 87 M 320 93 m -1, 0 a 1,1 0 1,0 2,0 a 1,1 0 1,0 -2,0 M 320 93 m -0.5, 0 a 0.5,0.5 0 1,0 1,0 a 0.5,0.5 0 1,0 -1,0  M320 93 L320 93 313 87 320 81 M 320 81 m -1, 0 a 1,1 0 1,0 2,0 a 1,1 0 1,0 -2,0 M 320 81 m -0.5, 0 a 0.5,0.5 0 1,0 1,0 a 0.5,0.5 0 1,0 -1,0  M308 87 Q 289.27 87, 270.53 87 T 233.06 87 M 221.06 87 m -1, 0 a 1,1 0 1,0 2,0 a 1,1 0 1,0 -2,0 M 221.06 87 m -0.5, 0 a 0.5,0.5 0 1,0 1,0 a 0.5,0.5 0 1,0 -1,0  M221.06 87 L221.06 87 233.06 87 M227.06 93 L227.06 93 227.06 81" id="h3600536776" class="r"></path><path d="M 443.39 112 m -1, 0 a 1,1 0 1,0 2,0 a 1,1 0 1,0 -2,0 M 443.39 112 m -0.5, 0 a 0.5,0.5 0 1,0 1,0 a 0.5,0.5 0 1,0 -1,0  M443.39 112 L443.39 112 455.39 112 M 443.39 118 m -1, 0 a 1,1 0 1,0 2,0 a 1,1 0 1,0 -2,0 M 443.39 118 m -0.5, 0 a 0.5,0.5 0 1,0 1,0 a 0.5,0.5 0 1,0 -1,0  M443.39 118 L443.39 118 450.39 112 443.39 106 M 443.39 106 m -1, 0 a 1,1 0 1,0 2,0 a 1,1 0 1,0 -2,0 M 443.39 106 m -0.5, 0 a 0.5,0.5 0 1,0 1,0 a 0.5,0.5 0 1,0 -1,0  M455.39 112 Q 476.54 112, 497.7 100.5 T 540 89 M 552 89 m -1, 0 a 1,1 0 1,0 2,0 a 1,1 0 1,0 -2,0 M 552 89 m -0.5, 0 a 0.5,0.5 0 1,0 1,0 a 0.5,0.5 0 1,0 -1,0  M552 89 L552 89 540 89 M546 95 L546 95 546 83" id="h4261757432" class="r"></path><path d="M 323 468 m -1, 0 a 1,1 0 1,0 2,0 a 1,1 0 1,0 -2,0 M 323 468 m -0.5, 0 a 0.5,0.5 0 1,0 1,0 a 0.5,0.5 0 1,0 -1,0  M323 468 L323 468 311 468 M 323 474 m -1, 0 a 1,1 0 1,0 2,0 a 1,1 0 1,0 -2,0 M 323 474 m -0.5, 0 a 0.5,0.5 0 1,0 1,0 a 0.5,0.5 0 1,0 -1,0  M323 474 L323 474 316 468 323 462 M 323 462 m -1, 0 a 1,1 0 1,0 2,0 a 1,1 0 1,0 -2,0 M 323 462 m -0.5, 0 a 0.5,0.5 0 1,0 1,0 a 0.5,0.5 0 1,0 -1,0  M311 468 Q 285.01 468, 259.02 435 T 207.04 402 M 195.04 402 m -1, 0 a 1,1 0 1,0 2,0 a 1,1 0 1,0 -2,0 M 195.04 402 m -0.5, 0 a 0.5,0.5 0 1,0 1,0 a 0.5,0.5 0 1,0 -1,0  M195.04 402 L195.04 402 207.04 402 M201.04 408 L201.04 408 201.04 396" id="h4209587069" class="r"></path><path d="M 323 493 m -1, 0 a 1,1 0 1,0 2,0 a 1,1 0 1,0 -2,0 M 323 493 m -0.5, 0 a 0.5,0.5 0 1,0 1,0 a 0.5,0.5 0 1,0 -1,0  M323 493 L323 493 311 493 M 323 499 m -1, 0 a 1,1 0 1,0 2,0 a 1,1 0 1,0 -2,0 M 323 499 m -0.5, 0 a 0.5,0.5 0 1,0 1,0 a 0.5,0.5 0 1,0 -1,0  M323 499 L323 499 316 493 323 487 M 323 487 m -1, 0 a 1,1 0 1,0 2,0 a 1,1 0 1,0 -2,0 M 323 487 m -0.5, 0 a 0.5,0.5 0 1,0 1,0 a 0.5,0.5 0 1,0 -1,0  M311 493 Q 285.01 493, 259.02 447.5 T 207.04 402 M 195.04 402 m -1, 0 a 1,1 0 1,0 2,0 a 1,1 0 1,0 -2,0 M 195.04 402 m -0.5, 0 a 0.5,0.5 0 1,0 1,0 a 0.5,0.5 0 1,0 -1,0  M195.04 402 L195.04 402 207.04 402 M201.04 408 L201.04 408 201.04 396" id="h2653012751" class="r"></path></g><g class="hrs"></g><g class="ts"><svg width="172.06" height="200" x="49" y="30" id="h2744470858" class="t"><rect height="40" width="172.06" class="th"></rect><text x="13" y="25" class="tht">films</text><rect height="160" width="172.06" class="t-bg" y="40"></rect><text x="13" y="61" class="tf pk">id<tspan x="159.06" class="ty">integer</tspan></text><path d="M7,14A2,2 0 0,1 5,12A2,2 0 0,1 7,10A2,2 0 0,1 9,12A2,2 0 0,1 7,14M12.65,10C11.83,7.67 9.61,6 7, 6A6, 6 0 0, 0 1, 12A6, 6 0 0, 0 7, 18C9.61, 18 11.83, 16.33 12.65, 14H17V18H21V14H23V10H12.65Z" class="i pk" transform="translate(102.36859375, 48) scale(0.65)"></path><text x="13" y="86" class="tf">name<tspan x="159.06" class="ty">varchar(100)</tspan></text><text x="13" y="111" class="tf">description<tspan x="159.06" class="ty">varchar(200)</tspan></text><text x="13" y="136" class="tf">releaseDate<tspan x="159.06" class="ty">date</tspan></text><text x="13" y="161" class="tf">duration<tspan x="159.06" class="ty">integer</tspan></text><text x="13" y="186" class="tf fk">ratingId<tspan x="159.06" class="ty">integer</tspan></text></svg><svg width="137.37" height="100" x="552" y="32" id="h807582512" class="t"><rect height="40" width="137.37" class="th"></rect><text x="13" y="25" class="tht">genres</text><rect height="60" width="137.37" class="t-bg" y="40"></rect><text x="13" y="61" class="tf pk">id<tspan x="124.37" class="ty">integer</tspan></text><path d="M7,14A2,2 0 0,1 5,12A2,2 0 0,1 7,10A2,2 0 0,1 9,12A2,2 0 0,1 7,14M12.65,10C11.83,7.67 9.61,6 7, 6A6, 6 0 0, 0 1, 12A6, 6 0 0, 0 7, 18C9.61, 18 11.83, 16.33 12.65, 14H17V18H21V14H23V10H12.65Z" class="i pk" transform="translate(67.67859375, 48) scale(0.65)"></path><text x="13" y="86" class="tf">name<tspan x="124.37" class="ty">varchar(50)</tspan></text></svg><svg width="123.39" height="100" x="320" y="30" id="h1991445889" class="t"><rect height="40" width="123.39" class="th"></rect><text x="13" y="25" class="tht">films_genres</text><rect height="60" width="123.39" class="t-bg" y="40"></rect><text x="13" y="61" class="tf fk">filmId<tspan x="110.39" class="ty">integer</tspan></text><text x="13" y="86" class="tf fk">genreId<tspan x="110.39" class="ty">integer</tspan></text></svg><svg width="130.7" height="100" x="321" y="154" id="h3920516257" class="t"><rect height="40" width="130.7" class="th"></rect><text x="13" y="25" class="tht">ratings</text><rect height="60" width="130.7" class="t-bg" y="40"></rect><text x="13" y="61" class="tf pk">id<tspan x="117.69999999999999" class="ty">integer</tspan></text><path d="M7,14A2,2 0 0,1 5,12A2,2 0 0,1 7,10A2,2 0 0,1 9,12A2,2 0 0,1 7,14M12.65,10C11.83,7.67 9.61,6 7, 6A6, 6 0 0, 0 1, 12A6, 6 0 0, 0 7, 18C9.61, 18 11.83, 16.33 12.65, 14H17V18H21V14H23V10H12.65Z" class="i pk" transform="translate(61.00859374999999, 48) scale(0.65)"></path><text x="13" y="86" class="tf">name<tspan x="117.69999999999999" class="ty">varchar(5)</tspan></text></svg><svg width="116.04" height="100" x="322" y="281" id="h334751877" class="t"><rect height="40" width="116.04" class="th"></rect><text x="13" y="25" class="tht">likes</text><rect height="60" width="116.04" class="t-bg" y="40"></rect><text x="13" y="61" class="tf fk">filmId<tspan x="103.04" class="ty">integer</tspan></text><text x="13" y="86" class="tf fk">userId<tspan x="103.04" class="ty">integer</tspan></text></svg><svg width="144.06" height="125" x="323" y="411" id="h3329144637" class="t"><rect height="40" width="144.06" class="th"></rect><text x="13" y="25" class="tht">friends</text><rect height="85" width="144.06" class="t-bg" y="40"></rect><text x="13" y="61" class="tf fk">userId<tspan x="131.06" class="ty">integer</tspan></text><text x="13" y="86" class="tf fk">friendId<tspan x="131.06" class="ty">integer</tspan></text><text x="13" y="111" class="tf">confirmed<tspan x="131.06" class="ty">boolean</tspan></text></svg><svg width="144.04" height="175" x="51" y="345" id="h1537667952" class="t"><rect height="40" width="144.04" class="th"></rect><text x="13" y="25" class="tht">users</text><rect height="135" width="144.04" class="t-bg" y="40"></rect><text x="13" y="61" class="tf pk">id<tspan x="131.04" class="ty">integer</tspan></text><path d="M7,14A2,2 0 0,1 5,12A2,2 0 0,1 7,10A2,2 0 0,1 9,12A2,2 0 0,1 7,14M12.65,10C11.83,7.67 9.61,6 7, 6A6, 6 0 0, 0 1, 12A6, 6 0 0, 0 7, 18C9.61, 18 11.83, 16.33 12.65, 14H17V18H21V14H23V10H12.65Z" class="i pk" transform="translate(74.34859374999999, 48) scale(0.65)"></path><text x="13" y="86" class="tf">email<tspan x="131.04" class="ty">varchar(200)</tspan></text><text x="13" y="111" class="tf">login<tspan x="131.04" class="ty">varchar(100)</tspan></text><text x="13" y="136" class="tf">name<tspan x="131.04" class="ty">varchar(100)</tspan></text><text x="13" y="161" class="tf">birthday<tspan x="131.04" class="ty">Date</tspan></text></svg></g></g></svg>